<svg xmlns="http://www.w3.org/2000/svg" xmlns:xlink="http://www.w3.org/1999/xlink" width="1024" height="1024" viewBox="0 0 1024 1024"><path fill="#FEFEFE" d="M509.184 205.891C504.673 205.867 497.974 205.898 493.776 206.215C438.104 208.641 362.769 219.673 321.507 260.982C299.467 283.048 303.277 315.405 325.354 334.416C331.97 340.114 338.538 344.56 345.974 349.125C351.945 353.551 357.604 357.417 363.785 361.355C379.945 371.649 410.705 376.473 411.238 399.846C411.497 411.203 409.282 421.92 401.155 430.5C385.442 446.811 355.272 457.67 333.807 464.065C287.152 477.964 242.611 504.427 235.558 557.151C234.679 563.722 234.744 572.138 234.803 579.648C234.817 581.551 234.832 583.396 234.83 585.138L234.836 630.424L234.865 702.52C234.866 705.7 234.863 708.889 234.86 712.081C234.853 720.914 234.845 729.776 234.919 738.574C235.015 749.982 242.303 758.371 250.317 765.678C258.322 772.976 271.261 779.786 281.519 783.96C354.652 813.717 452.758 818.35 531.175 817.866C550.623 817.684 570.061 816.923 589.463 815.585C642.18 811.536 736.586 799.708 777.665 761.361C781.9 757.407 787.245 749.024 788.191 743.254C789.099 737.72 789.029 730.913 788.966 724.778C788.952 723.365 788.938 721.986 788.936 720.668L788.868 686C788.773 646.712 788.632 607.322 788.549 568.077C788.496 543.037 778.139 518.917 759.695 501.739C745.669 488.674 730.289 479.814 712.003 472.163C680.843 459.089 640.878 454.085 618.616 426.002C614.088 420.29 612.816 411.941 612.204 404.896C610.406 384.22 627.18 376.635 643.183 369.399C647.308 367.533 651.382 365.691 655.074 363.654C662.725 359.432 670.586 354.298 677.604 348.867C682.036 345.738 686.717 343.369 691.443 339.88C706.203 328.986 715.824 314.987 716.477 296.328C716.942 283.062 708.536 266.5 698.801 257.667C652.013 215.218 569.683 206.224 509.184 205.891Z"/><path fill="#1D1B1D" d="M628.361 364.021C622.674 361.09 586.93 361.366 578.635 361.573C565.296 368.119 497.934 367.683 481.443 365.716C481.866 365.667 483.941 365.565 484.17 365.321C483.657 364.752 483.183 364.388 482.617 363.787C481.205 362.968 476.743 362.389 475.133 362.177L473.136 363.324C471.165 363.002 469.464 363.019 467.474 362.898C458.887 361.555 400.636 360.063 396.003 364.06C395.865 364.179 395.76 364.331 395.639 364.467C396.263 369.186 417.764 372.512 422.758 374.222C423.702 375.883 425.743 379.539 426.93 380.815C433.169 387.523 444.469 392.851 452.836 396.677L452.514 397.719C441.692 392.538 420.992 384.712 409.341 382.503C414.806 389.208 419.153 395.314 420.649 403.917C424.007 423.226 413.326 442.036 400.412 455.531C398.841 457.173 397.268 458.868 395.772 460.596C392.924 463.002 385.643 469.041 383.367 471.531C383.125 471.722 382.876 471.918 382.621 472.119C377.299 476.301 369.377 482.526 370.75 489.788C381.148 504.927 398.687 505.481 415.597 505.892C416.92 506.161 417.829 506.032 418.619 505.919C419.735 505.76 420.617 505.635 422.102 506.708C395.165 515.705 356.337 535.658 407.804 550.019C410.487 550.767 413.19 551.575 415.9 552.293C414.604 552.989 412.076 552.982 409.577 552.975C408.241 552.971 406.912 552.967 405.785 553.071C395.263 553.082 385.055 552.887 374.56 551.914C367.672 551.275 360.702 549.969 353.866 549.456C348.823 548.584 343.612 547.388 338.311 546.171C317.415 541.373 295.122 536.254 276.211 549.452C265.144 557.177 256.527 571.64 254.954 584.821C253.17 599.778 253.477 616.994 253.767 633.233C253.855 638.179 253.942 643.034 253.967 647.707L254.83 763.823C260.674 768.005 269.043 773.761 275.503 776.657L275.719 657.125C275.777 649.578 275.773 642.03 275.706 634.484C275.68 632.647 275.64 630.861 275.601 629.109C275.405 620.388 275.229 612.515 276.885 603.437C282.773 571.228 310.431 558.159 340.958 558.86C357.164 559.232 371.039 562.578 386.829 565.132C419.303 570.385 450.34 577.796 482.134 586.194C451.201 589.362 412.45 588.739 391.764 614.33C385.468 622.275 381.254 631.666 379.506 641.652C378.201 649.011 378.263 659.594 378.315 668.536C378.327 670.658 378.339 672.688 378.332 674.561C378.156 692.31 378.15 710.061 378.314 727.811L378.464 759.752C378.466 760.477 378.468 761.185 378.469 761.876C378.515 781.027 378.531 788.076 385.9 807.245C433.888 812.902 471.514 814.928 519.825 815.488C520.894 800.749 522.035 782.569 524.609 768.353C534.457 713 563.047 662.721 605.58 625.955C629.409 605.167 657.474 589.809 687.829 580.948C693.275 579.326 704.876 575.989 710.18 576.871C739.364 581.729 739.432 620.12 739.446 641.099L739.45 673.603L739.467 781.713C743.62 779.816 752.371 775.986 756.02 773.659C760.546 771.448 764.763 768.758 769.042 766.112C769.852 707.194 770.225 648.271 770.163 589.348C770.064 574.216 766.854 558.263 755.669 547.145C736.958 528.545 702.797 537.965 675.072 545.61C666.78 547.897 659.063 550.025 652.508 551.197C640.027 553.428 627.085 553.472 614.331 553.516C613.038 553.521 611.747 553.525 610.458 553.532L609.531 552.264C610.133 552.101 610.822 551.921 611.583 551.721C622.59 548.838 648.562 542.034 640.796 528.678C634.166 517.274 609.643 508.923 597.585 505.364L598.006 504.489C599.976 504.866 601.955 505.189 603.942 505.458C617.548 507.27 648.298 505.497 652.051 487.109C652.76 483.923 649.694 479.805 647.565 477.455C636.467 465.203 623.394 455.717 612.941 442.745C596.784 418.658 599.427 407.837 611.179 382.477C608.162 383.036 606.798 383.171 603.991 384.57C602.751 385.043 601.642 385.484 600.375 385.889L594.12 388.668C587.669 391.24 581.198 393.762 574.707 396.232L573.687 395.371C584.578 390.438 596.516 385.076 601.972 373.902C606.918 373.266 626.849 369.708 628.882 364.982L628.361 364.021Z"/><path fill="#1D1B1D" d="M628.361 364.021C622.674 361.09 586.93 361.366 578.635 361.573C565.296 368.119 497.934 367.683 481.443 365.716C481.866 365.667 483.941 365.565 484.17 365.321C483.657 364.752 483.183 364.388 482.617 363.787C481.205 362.968 476.743 362.389 475.133 362.177L473.136 363.324C471.165 363.002 469.464 363.019 467.474 362.898C458.887 361.555 400.636 360.063 396.003 364.06C395.865 364.179 395.76 364.331 395.639 364.467C396.263 369.186 417.764 372.512 422.758 374.222C423.702 375.883 425.743 379.539 426.93 380.815C433.169 387.523 444.469 392.851 452.836 396.677L452.514 397.719C441.692 392.538 420.992 384.712 409.341 382.503C414.806 389.208 419.153 395.314 420.649 403.917C424.007 423.226 413.326 442.036 400.412 455.531C398.841 457.173 397.268 458.868 395.772 460.596C392.924 463.002 385.643 469.041 383.367 471.531C383.125 471.722 382.876 471.918 382.621 472.119C377.299 476.301 369.377 482.526 370.75 489.788C381.148 504.927 398.687 505.481 415.597 505.892C416.92 506.161 417.829 506.032 418.619 505.919C419.735 505.76 420.617 505.635 422.102 506.708C395.165 515.705 356.337 535.658 407.804 550.019C410.487 550.767 413.19 551.575 415.9 552.293C414.604 552.989 412.076 552.982 409.577 552.975C408.241 552.971 406.912 552.967 405.785 553.071C395.263 553.082 385.055 552.887 374.56 551.914C367.672 551.275 360.702 549.969 353.866 549.456C358.398 551.975 369.866 554.236 375.23 555.367C416.868 564.149 459.594 565.419 501.998 565.657C534.627 566.075 567.258 565.007 599.79 562.455C612.149 561.371 624.547 559.55 637.394 558.23C641.297 557.829 645.35 557.363 649.503 556.885C694.615 551.698 751.564 545.149 756.798 605.64C757.25 610.868 757.138 616.454 757.029 621.892C756.986 624.002 756.944 626.09 756.936 628.126L756.755 667.593C756.773 702.95 756.528 738.306 756.02 773.659C760.546 771.448 764.763 768.758 769.042 766.112C769.852 707.194 770.225 648.271 770.163 589.348C770.064 574.216 766.854 558.263 755.669 547.145C736.958 528.545 702.797 537.965 675.072 545.61C666.78 547.897 659.063 550.025 652.508 551.197C640.027 553.428 627.085 553.472 614.331 553.516C613.038 553.521 611.747 553.525 610.458 553.532L609.531 552.264C610.133 552.101 610.822 551.921 611.583 551.721C622.59 548.838 648.562 542.034 640.796 528.678C634.166 517.274 609.643 508.923 597.585 505.364L598.006 504.489C599.976 504.866 601.955 505.189 603.942 505.458C617.548 507.27 648.298 505.497 652.051 487.109C652.76 483.923 649.694 479.805 647.565 477.455C636.467 465.203 623.394 455.717 612.941 442.745Z"/><path fill="#777677" d="M612.941 442.745C606.834 439.491 609.381 436.096 604.046 434.114L604.405 434.805C609.331 444.194 624.243 461.057 633.707 467.492C654.33 481.515 658.387 496.308 627.366 499.539C615.699 500.754 602.828 499.364 590.133 497.992C581.733 497.085 573.41 496.186 565.563 496.055C559.359 495.845 553.37 496.045 547.381 496.245C543.112 496.387 538.842 496.53 534.493 496.524L533.536 497.493C549.879 496.935 602.065 502.995 604.379 520.51C605.57 529.526 557.318 539.681 536.896 543.979C533.182 544.76 530.389 545.348 528.981 545.7C528.938 545.773 528.901 545.828 528.87 545.874C528.784 546 528.751 546.049 528.784 546.213C529.165 546.508 530.295 546.753 530.881 546.976C538.232 547.067 578.616 549.815 582.616 555.504L582.278 556.387C569.617 563.651 447.802 564.247 442.679 556.163L443.23 554.998C449.929 549.612 482.729 547.497 492.339 546.943C494.143 546.589 495.714 546.446 497.535 546.059C496.083 545.691 493.102 545.073 489.12 544.247C468 539.865 418.71 529.641 419.853 519.921C421.59 505.152 465.893 498.545 480.768 497.941C483.304 497.523 486.638 497.331 489.243 497.249C489.069 497.013 488.851 496.813 488.651 496.599C483.932 496.658 479.253 496.554 474.561 496.449C467.786 496.298 460.984 496.147 453.993 496.485C450.424 496.658 445.297 497.304 439.329 498.057C416.441 500.944 381.185 505.39 373.995 490.639C372.838 490.292 371.942 490.161 370.75 489.788C381.148 504.927 398.687 505.481 415.597 505.892C416.92 506.161 417.829 506.032 418.619 505.919C419.735 505.76 420.617 505.635 422.102 506.708C395.165 515.705 356.337 535.658 407.804 550.019C410.487 550.767 413.19 551.575 415.9 552.293C414.604 552.989 412.076 552.982 409.577 552.975C408.241 552.971 406.912 552.967 405.785 553.071C395.263 553.082 385.055 552.887 374.56 551.914C367.672 551.275 360.702 549.969 353.866 549.456C358.398 551.975 369.866 554.236 375.23 555.367C416.868 564.149 459.594 565.419 501.998 565.657C534.627 566.075 567.258 565.007 599.79 562.455C612.149 561.371 624.547 559.55 637.394 558.23C641.297 557.829 645.35 557.363 649.503 556.885C694.615 551.698 751.564 545.149 756.798 605.64C757.25 610.868 757.138 616.454 757.029 621.892C756.986 624.002 756.944 626.09 756.936 628.126L756.755 667.593C756.773 702.95 756.528 738.306 756.02 773.659C760.546 771.448 764.763 768.758 769.042 766.112C769.852 707.194 770.225 648.271 770.163 589.348C770.064 574.216 766.854 558.263 755.669 547.145C736.958 528.545 702.797 537.965 675.072 545.61C666.78 547.897 659.063 550.025 652.508 551.197C640.027 553.428 627.085 553.472 614.331 553.516C613.038 553.521 611.747 553.525 610.458 553.532L609.531 552.264C610.133 552.101 610.822 551.921 611.583 551.721C622.59 548.838 648.562 542.034 640.796 528.678C634.166 517.274 609.643 508.923 597.585 505.364L598.006 504.489C599.976 504.866 601.955 505.189 603.942 505.458C617.548 507.27 648.298 505.497 652.051 487.109C652.76 483.923 649.694 479.805 647.565 477.455C636.467 465.203 623.394 455.717 612.941 442.745Z"/><path fill="#E0E0E1" d="M428.093 504.351C426.933 504.465 415.71 505.897 415.598 505.892C416.921 506.161 417.829 506.032 418.619 505.919C419.735 505.76 420.617 505.635 422.102 506.708C424.93 506.085 425.925 505.233 428.121 504.433L428.126 504.383L428.093 504.351Z"/><path fill="#E0E0E1" d="M417.87 552.803C417.113 552.513 416.711 552.462 415.9 552.293C414.604 552.989 412.076 552.982 409.577 552.975C408.241 552.971 406.912 552.967 405.785 553.071C407.291 553.261 417.796 553.841 418.293 553.232C418.249 553.144 418.206 553.056 418.162 552.968L417.828 552.793L417.87 552.803Z"/><path fill="#B5B5B7" d="M594.346 504.295C595.562 504.967 596.24 505.091 597.585 505.364L598.006 504.489L597.947 504.47C597.177 504.223 594.42 503.339 593.954 503.84L594.01 503.915L594.307 503.781L594.346 504.295Z"/><path fill="#E0E0E1" d="M610.019 553.537C610.204 553.534 610.356 553.531 610.458 553.532L609.531 552.264C609.038 552.358 607.058 552.524 606.856 553.192C607.175 553.589 609.05 553.555 610.019 553.537Z"/><path fill="#777677" d="M628.361 364.021C622.674 361.09 586.93 361.366 578.635 361.573C565.296 368.119 497.934 367.683 481.443 365.716C481.866 365.667 483.941 365.565 484.17 365.321C483.657 364.752 483.183 364.388 482.617 363.787C481.205 362.968 476.743 362.389 475.133 362.177L473.136 363.324C471.165 363.002 469.464 363.019 467.474 362.898C458.887 361.555 400.636 360.063 396.003 364.06C395.865 364.179 395.76 364.331 395.639 364.467C396.263 369.186 417.764 372.512 422.758 374.222C423.702 375.883 425.743 379.539 426.93 380.815C433.169 387.523 444.469 392.851 452.836 396.677L452.514 397.719C441.692 392.538 420.992 384.712 409.341 382.503C414.806 389.208 419.153 395.314 420.649 403.917C424.007 423.226 413.326 442.036 400.412 455.531C398.841 457.173 397.268 458.868 395.772 460.596C395.18 463.156 391.913 464.692 391.154 466.188C391.909 466.322 394.077 464.253 396.39 462.044C399.103 459.454 402.016 456.673 403.091 457.025C409.592 451.842 418.709 441.139 422.339 434.176C429.001 421.397 427.854 406.17 422.576 393.208C422.131 392.114 422.205 391.542 422.788 390.563C426.303 389.698 436.63 393.62 443.49 396.225C445.298 396.912 446.865 397.507 448.003 397.899C468.645 405.071 493.398 413.142 515.421 412.408C528.723 411.965 589.353 402.273 594.12 388.668C587.669 391.24 581.198 393.762 574.707 396.232L573.687 395.371C584.578 390.438 596.516 385.076 601.972 373.902C606.918 373.266 626.849 369.708 628.882 364.982L628.361 364.021Z"/><path fill="#1D1B1D" d="M482.617 363.787C481.205 362.968 476.743 362.389 475.133 362.177L473.136 363.324C471.165 363.002 469.464 363.019 467.474 362.898C471.309 364.705 477.267 365.347 481.443 365.716C481.866 365.667 483.941 365.565 484.17 365.321C483.657 364.752 483.183 364.388 482.617 363.787Z"/><path fill="#777677" d="M482.617 363.787C481.205 362.968 476.743 362.389 475.133 362.177L473.136 363.324C476.171 363.732 479.565 363.925 482.617 363.787Z"/><path fill="#B5B5B7" d="M574.707 396.232L573.687 395.371C573.138 395.55 567.027 398.112 566.791 398.793C569.236 398.733 572.355 397.063 574.707 396.232Z"/><path fill="#B5B5B7" d="M457.618 399.674C457.401 397.599 454.505 397.244 452.836 396.677L452.514 397.719L453.166 397.967C453.548 398.116 457.521 399.773 457.568 399.776L457.618 399.674Z"/><path fill="#1D1B1D" d="M465.886 380.137C460.709 379.837 454.273 379.463 450.803 379.736C452.006 383.278 471.782 393.53 476.098 395.495C478.183 396.445 480.202 397.396 482.172 398.324C497.487 405.539 509.869 411.372 527.756 404.554C538.931 400.295 548.408 396.147 558.834 390.173C562.415 388.148 571.718 383.284 574.009 380.457C572.669 379.156 558.134 379.991 550.571 380.425C548.679 380.534 547.223 380.617 546.52 380.636C529.544 380.967 512.564 381.035 495.586 380.841C487.286 380.832 478.986 380.684 470.691 380.396C469.367 380.34 467.704 380.243 465.886 380.137Z"/><path fill="#1D1B1D" d="M466.124 368.825C451.957 369.202 437.777 369.579 423.495 369.545L423.501 371.126C440.69 376.022 451.571 376.497 468.818 377.985C501.028 380.764 532.009 380.537 564.185 377.428C573.818 376.497 593.454 374.578 602.141 370.872C600.537 369.821 599.914 369.781 598.521 369.691C598.07 369.662 597.538 369.628 596.866 369.552C574.507 368.939 551.532 369.307 529.25 368.489C508.046 367.71 487.1 368.267 466.124 368.825Z"/><path fill="#1D1B1D" d="M608.987 368.884C604.861 369.098 601.029 369.377 596.866 369.552C597.538 369.628 598.07 369.662 598.521 369.691C599.914 369.781 600.537 369.821 602.141 370.872C604.295 370.509 606.88 369.588 608.987 368.884Z"/><path d="M423.054 370.982C423.261 371.046 423.42 371.096 423.501 371.126L423.495 369.545L422.948 369.501C422.806 369.489 422.597 369.46 422.353 369.426C421.506 369.309 420.238 369.134 419.905 369.403C419.801 369.965 422.026 370.66 423.054 370.982Z"/><path fill="#737274" d="M611.179 382.477C608.162 383.036 606.798 383.171 603.991 384.57C602.751 385.043 601.642 385.484 600.375 385.889C601.491 387.683 601.563 387.891 599.809 389.22C600.475 389.223 601.013 389.252 601.673 389.291C602.242 390.715 602.157 390.636 603.293 391.617C599.014 405.103 596.582 421.141 604.046 434.114C609.381 436.096 606.834 439.491 612.941 442.745C596.784 418.658 599.427 407.837 611.179 382.477Z"/><path d="M604.272 388.658C604.806 386.743 604.88 386.166 603.991 384.57C602.751 385.043 601.642 385.484 600.375 385.889C601.491 387.683 601.563 387.891 599.809 389.22C600.475 389.223 601.013 389.252 601.673 389.291C602.242 390.715 602.157 390.636 603.293 391.617C603.66 390.645 603.987 389.658 604.272 388.658Z"/><path fill="#737274" d="M391.154 466.188C391.913 464.692 395.18 463.156 395.772 460.596C392.924 463.002 385.643 469.041 383.367 471.531C383.125 471.722 382.876 471.918 382.621 472.119C377.299 476.301 369.377 482.526 370.75 489.788C371.942 490.161 372.838 490.292 373.995 490.639C372.402 483.454 377.481 479.315 382.524 475.204C383.623 474.308 384.721 473.413 385.747 472.489C388.535 470.154 402.041 459.023 403.091 457.025C402.016 456.673 399.103 459.454 396.39 462.044C394.077 464.253 391.909 466.322 391.154 466.188Z"/><path fill="#FEFEFE" d="M601.673 389.291C601.013 389.252 600.475 389.223 599.809 389.22C599.117 389.734 591.772 393.945 589.793 395.212L590.575 396.162C592.976 395.346 594.802 395.063 597.268 394.625C596.911 398.055 596.107 402.091 595.935 405.239C595.988 406.124 595.971 406.932 595.956 407.687C595.919 409.484 595.888 410.98 596.811 412.488C598.018 405.024 601.245 396.222 601.673 389.291Z"/><path fill="#333335" d="M495.619 497.591C493.483 497.045 490.849 496.41 488.651 496.599C488.851 496.813 489.069 497.013 489.243 497.249C486.638 497.331 483.304 497.523 480.768 497.941C484.696 498.196 488.464 497.983 492.314 497.766C493.407 497.705 494.507 497.643 495.619 497.591Z"/><path fill="#B5B5B7" d="M595.492 413.54C595.505 414.282 595.519 415.036 595.522 415.808L596.537 415.912C596.655 414.731 596.756 413.675 596.811 412.488C595.888 410.98 595.919 409.484 595.956 407.687C595.971 406.932 595.988 406.124 595.935 405.239C595.394 408.097 595.442 410.736 595.492 413.54Z"/><path fill="#5A595A" d="M530.813 546.979C530.853 546.977 530.876 546.976 530.881 546.976C530.295 546.753 529.165 546.508 528.784 546.213C528.751 546.049 528.784 546 528.87 545.874C528.901 545.828 528.938 545.773 528.981 545.7C527.533 545.846 526.916 545.786 525.761 546.435L525.773 546.295C524.77 547.309 530.141 547.016 530.813 546.979Z"/><path fill="#333335" d="M530.41 497.975C531.458 497.912 532.507 497.694 533.536 497.493L534.493 496.524C534.47 496.526 534.43 496.528 534.375 496.531C533.512 496.582 528.992 496.847 529.814 497.862L530.251 497.474L530.41 497.975Z"/><path fill="#5A595A" d="M497.84 546.069C497.746 546.067 497.646 546.065 497.535 546.059C495.714 546.446 494.143 546.589 492.339 546.943C492.418 546.945 492.52 546.949 492.643 546.953C494.16 547.007 498.76 547.17 499.218 546.622L499.132 546.573L499.225 546.442L498.706 546.266L498.781 546.234C498.442 546.084 498.185 546.078 497.84 546.069Z"/><path fill="#E0E0E1" d="M590.575 396.162L589.793 395.212C588.98 395.676 588.18 396.125 587.39 396.627L587.424 396.596L587.342 396.657C587.358 396.647 587.374 396.637 587.39 396.627L586.845 397.113L586.846 397.212C587.316 397.438 588.957 396.792 589.955 396.399C590.217 396.296 590.435 396.21 590.575 396.162Z"/><path fill="#737274" d="M596.537 415.912L595.522 415.808L595.579 416.643C595.6 416.898 595.731 417.524 596.107 417.448C596.564 417.355 596.538 415.912 596.537 415.912Z"/><path fill="#FEFEFE" d="M458.676 403.313C446.48 398.542 433.069 393.295 426.596 394.071C426.669 398.579 429.045 402.415 431.405 406.224C435.938 413.545 440.413 420.769 428.384 432.483C420.87 439.8 415.075 455.439 424.149 463.97C433.514 472.889 465.464 464.931 475.621 461.21L483.181 458.393C473.917 450.894 448.966 430.577 460.444 415.047C463.605 410.772 471.495 410.108 476.601 409.743C471.965 408.512 465.511 405.987 458.676 403.313Z"/><path fill="#FEFEFE" d="M582.801 405.517C582.684 405.529 582.58 405.54 582.491 405.548C570.358 409.407 545.463 420.459 539.617 431.966C537.803 435.462 537.536 439.558 538.882 443.26C542.162 452.569 553.496 458.014 562.086 461.212C572.921 464.195 586.103 464.822 595.637 458.771C608.473 450.049 602.208 441.226 595.909 432.357C593.091 428.388 590.266 424.41 589.142 420.427C588.614 418.555 588.651 416.198 588.688 413.816C588.728 411.278 588.768 408.714 588.125 406.681C587.602 405.028 584.232 405.372 582.801 405.517Z"/><path fill="#FEFEFE" d="M618.541 458.038L617.091 458.562C620.275 464.895 622.939 471.548 626.701 477.526C629.252 481.581 633.545 488.771 638.221 490.098C649.887 493.41 648.468 482.254 639.713 477.278C634.1 474.087 622.394 462.826 618.541 458.038Z"/><path fill="#E0E0E1" d="M616.889 458.116C616.977 458.303 617.049 458.459 617.091 458.562L618.541 458.038C618.088 457.428 616.952 455.726 616.286 455.434C615.771 455.725 616.488 457.257 616.889 458.116Z"/><path fill="#1D1B1D" d="M430.222 269.357C420.51 269.658 406.548 269.948 397.062 270.927C393.403 270.69 387.55 270.965 383.954 271.514C368.572 271.398 338.261 278.65 329.167 289.438C300.442 323.512 353.76 353.667 382.854 354.921C383.343 354.943 383.956 354.872 384.463 354.813C384.591 354.799 384.712 354.785 384.823 354.773C388.085 355.817 392.396 356.424 395.827 356.707L395.481 355.527C378.384 352.417 359.204 346.591 348.424 332.057C341.641 322.911 343.726 309.883 353.788 304.277C374.036 292.998 401.156 296.87 424.574 300.214C428.572 300.785 432.462 301.34 436.191 301.802C453.544 303.951 469.496 307.546 486.52 310.773C488.955 311.28 492.331 312.087 494.579 313.036C479.633 314.941 426.223 321.221 418.113 332.346C417.12 333.707 416.684 335.209 416.966 336.89C417.599 340.652 421.192 343.58 424.19 345.548C438.702 355.08 458.292 359.111 475.133 362.177C476.743 362.389 481.205 362.968 482.617 363.787C483.183 364.388 483.657 364.752 484.17 365.321C483.941 365.565 481.866 365.667 481.443 365.716C497.934 367.683 565.296 368.119 578.635 361.573C575.348 361.541 572.064 361.394 568.787 361.133C560.051 360.464 543.596 359.441 537.164 352.98C533.12 347.54 542.614 342.688 545.976 341.338C559.302 336.207 573.361 333.165 587.056 329.023C612.107 321.446 633.948 310.557 656.905 298.063C668.141 301.075 680.743 310.47 679.239 323.121C677.097 341.138 654.384 349.92 640.012 354.145L639.868 355.34C642.693 354.403 644.849 354.37 647.928 353.144C648.938 353.246 650.346 353.31 651.368 353.102C673.867 348.515 706.589 330.989 702.571 303.501C698.395 274.933 666.224 270.578 642.743 270.008C641.407 269.976 640.048 269.909 638.678 269.842C634.915 269.657 631.068 269.468 627.384 269.977C591.978 268.27 554.108 268.369 517.981 268.463C511.777 268.479 505.625 268.495 499.546 268.502C476.435 268.436 453.324 268.721 430.222 269.357Z"/><path fill="#737274" d="M384.463 354.813C384.591 354.799 384.712 354.785 384.823 354.773C364.325 349.23 327.861 337.252 325.157 311.931C322.127 283.565 363.585 276.049 384.332 273.411C385.336 272.758 386.061 272.383 387.255 272.275C387.392 272.262 387.425 272.269 387.447 272.257C387.463 272.248 387.474 272.228 387.516 272.182C387.07 272.021 385.398 272.036 383.954 271.514C368.572 271.398 338.261 278.65 329.167 289.438C300.442 323.512 353.76 353.667 382.854 354.921C383.343 354.943 383.956 354.872 384.463 354.813Z"/><path fill="#777677" d="M638.678 269.842C634.915 269.657 631.068 269.468 627.384 269.977L628.364 270.217C632.21 271.119 642.576 272.01 646.848 272.456C664.168 274.264 685.615 278.254 695.869 294.15C699.71 299.996 700.974 307.165 699.365 313.971C696.657 325.951 684.879 335.534 675.017 341.918C666.607 347.363 656.536 349.44 647.928 353.144C648.938 353.246 650.346 353.31 651.368 353.102C673.867 348.515 706.589 330.989 702.571 303.501C698.395 274.933 666.224 270.578 642.743 270.008C641.407 269.976 640.048 269.909 638.678 269.842Z"/><path fill="#5A595A" d="M397.062 270.927C393.403 270.69 387.55 270.965 383.954 271.514C385.398 272.036 387.07 272.021 387.516 272.182C387.474 272.228 387.463 272.248 387.447 272.257C387.425 272.269 387.392 272.262 387.255 272.275C386.061 272.383 385.336 272.758 384.332 273.411C388.225 272.909 394.089 272.99 397.062 270.927Z"/><path fill="#FEFEFE" d="M628.266 273.233C624.753 273.074 621.298 272.918 617.945 272.703C616.757 273.021 616.448 272.857 616.019 273.911C642.911 276.156 704.195 288.149 689.912 327.644C698.016 316.87 701.621 303.177 691.209 292.216C675.193 275.353 650.552 274.24 628.266 273.233Z"/><path fill="#737274" d="M599.812 272.563C599.813 272.555 615.467 273.976 616.019 273.911C616.448 272.857 616.757 273.021 617.945 272.703C616.723 272.333 601.002 272.033 599.805 272.421C599.808 272.468 599.81 272.516 599.812 272.563Z"/><path fill="#777677" d="M635.009 356.163C636.618 356.002 638.28 355.672 639.868 355.34L640.012 354.145C639.155 354.276 628.468 356.288 628.215 356.418C628.343 357.134 632.56 356.517 634.317 356.259C634.653 356.21 634.898 356.174 635.009 356.163Z"/><path fill="#5A595A" d="M395.826 355.58C395.656 355.554 395.536 355.536 395.481 355.527L395.827 356.707C396.731 356.978 401.96 357.684 402.597 357.274C402.669 356.606 397.313 355.803 395.826 355.58Z"/></svg>
